<svg width="81" height="36" viewBox="0 0 81 36" xmlns="http://www.w3.org/2000/svg" xmlns:xlink="http://www.w3.org/1999/xlink"><defs><path id="path-1" d="M0 0.0292919255L80.9129139 0.0292919255 80.9129139 36 0 36z"/><linearGradient x1="0%" y1="50%" x2="100%" y2="50%" id="linearGradient-3"><stop stop-color="#00A7E2" offset="0%"/><stop stop-color="#007FC4" offset="100%"/></linearGradient></defs><g id="pages" stroke="none" stroke-width="1" fill="none" fill-rule="evenodd"><g id="home_strahovka" transform="translate(-1059 -3508)"><g id="footer" transform="translate(-70 2712)"><g id="лого-платежных-систем" transform="translate(1129 793)"><g id="Page-1" transform="translate(0 3)"><g id="Group-3"><mask id="mask-2" fill="#fff"><use xlink:href="#path-1"/></mask><path d="M76.4630041,36 L4.45002049,36 C1.99257787,36 -0.000110655738,33.9869068 -0.000110655738,31.5040248 L-0.000110655738,4.52549068 C-0.000110655738,2.0426087 1.99257787,0.0292919255 4.45002049,0.0292919255 L76.4630041,0.0292919255 C78.9204467,0.0292919255 80.9129139,2.0426087 80.9129139,4.52549068 L80.9129139,31.5040248 C80.9129139,33.9869068 78.9204467,36 76.4630041,36" id="Fill-1" fill="#FFF" mask="url(#mask-2)"/></g><path d="M43.1681046,10.9013328 L39.1370248,19.6361398 L38.7270693,19.6361398 L38.7270693,9 L33,9 L33,27 L37.8615082,27 C39.1370248,27 40.296626,26.2581311 40.8321191,25.0986672 L44.8640941,16.3638602 L45.2729307,16.3638602 L45.2729307,27 L51,27 L51,9 L46.1398344,9 C44.8627514,9 43.703374,9.74186891 43.1681046,10.9013328" id="Fill-4" fill="#20AA4D"/><path d="M22.1006301,11.3660007 L19.7052508,19.6368214 L19.2949739,19.6368214 L16.8995946,11.3660007 C16.4929126,9.96492907 15.2056855,9 13.7425292,9 L8,9 L8,27 L13.7490451,27 L13.7490451,16.3634024 L14.1606702,16.3634024 L17.446256,27 L21.553744,27 L24.8393298,16.3634024 L25.2498315,16.3634024 L25.2498315,27 L31,27 L31,9 L25.2576955,9 C23.7945391,9 22.5070874,9.96492907 22.1006301,11.3660007" id="Fill-6" fill="#20AA4D"/><path d="M54,17 L54,27 L59.8313525,27 L59.8313525,21.1668376 L66.1035782,21.1668376 C68.8278136,21.1668376 71.1392585,19.4259829 72,17 L54,17 Z" id="Fill-8" fill="#20AA4D"/><path d="M65.8047211,9 L53,9 C53.7777144,12.9821608 57.478749,16 61.9324176,16 L71.8759543,16 C71.9566179,15.6226105 72,15.2328825 72,14.8331561 C72,11.6117307 69.2260316,9 65.8047211,9" id="Fill-10" fill="url(#linearGradient-3)"/></g></g></g></g></g></svg>